<?xml version="1.0" encoding="utf-8"?>
<!-- Generator: Adobe Illustrator 25.0.0, SVG Export Plug-In . SVG Version: 6.00 Build 0)  -->
<svg version="1.1" id="instagram" xmlns="http://www.w3.org/2000/svg" xmlns:xlink="http://www.w3.org/1999/xlink" x="0px" y="0px"
	 width="40px" height="40px" viewBox="0 0 40 40" style="enable-background:new 0 0 40 40;" xml:space="preserve">
<g>
	<g>
		<path d="M27.8,10.5c-1,0-1.7,0.8-1.7,1.7c0,1,0.8,1.7,1.7,1.7c1,0,1.7-0.8,1.7-1.7C29.6,11.3,28.8,10.5,27.8,10.5z"/>
		<path d="M20.1,12.7c-4,0-7.3,3.3-7.3,7.3c0,4,3.3,7.3,7.3,7.3c4,0,7.3-3.3,7.3-7.3C27.4,16,24.1,12.7,20.1,12.7z M20.1,24.7
			c-2.6,0-4.7-2.1-4.7-4.7s2.1-4.7,4.7-4.7c2.6,0,4.7,2.1,4.7,4.7S22.7,24.7,20.1,24.7z"/>
		<path d="M25.9,34.8H14.1c-4.9,0-8.9-4-8.9-8.9V14.1c0-4.9,4-8.9,8.9-8.9h11.8c4.9,0,8.9,4,8.9,8.9v11.8
			C34.8,30.8,30.8,34.8,25.9,34.8z M14.1,8C10.7,8,8,10.7,8,14.1v11.8c0,3.4,2.7,6.1,6.1,6.1h11.8c3.4,0,6.1-2.7,6.1-6.1V14.1
			c0-3.4-2.7-6.1-6.1-6.1H14.1z"/>
	</g>
</g>
</svg>
