<?xml version="1.0" encoding="utf-8"?>
<!-- Generator: Adobe Illustrator 25.0.0, SVG Export Plug-In . SVG Version: 6.00 Build 0)  -->
<svg version="1.1" id="Capa_1" xmlns="http://www.w3.org/2000/svg" xmlns:xlink="http://www.w3.org/1999/xlink" x="0px" y="0px"
	 width="40px" height="40px" viewBox="0 0 40 40" style="enable-background:new 0 0 40 40;" xml:space="preserve">
<path d="M34.6,6.1c0-0.4-0.3-0.7-0.7-0.7H6.1c-0.4,0-0.7,0.3-0.7,0.7v27.8c0,0.4,0.3,0.7,0.7,0.7l11.6,0v-9.9H14v-4.2h3.7v-3.2
	c0-3.7,2.2-5.7,5.5-5.7c1.6,0,3.3,0.3,3.3,0.3v3.6h-1.8c-1.8,0-2.4,1.1-2.4,2.3v2.7h4.1l-0.6,4.2h-3.4v9.9h11.6
	c0.4,0,0.7-0.3,0.7-0.7L34.6,6.1z"/>
</svg>
