<?xml version="1.0" encoding="utf-8"?>
<!-- Generator: Adobe Illustrator 25.0.0, SVG Export Plug-In . SVG Version: 6.00 Build 0)  -->
<svg version="1.1" id="linkedin" xmlns="http://www.w3.org/2000/svg" xmlns:xlink="http://www.w3.org/1999/xlink" x="0px" y="0px"
	 width="40px" height="40px" viewBox="0 0 40 40" style="enable-background:new 0 0 40 40;" xml:space="preserve">
<g>
	<path d="M5.7,15h6.1v19.7H5.7V15z M8.8,5.2c2,0,3.6,1.6,3.6,3.6c0,2-1.6,3.6-3.6,3.6c-2,0-3.6-1.6-3.6-3.6C5.2,6.8,6.8,5.2,8.8,5.2
		"/>
	<path d="M15.7,15h5.9v2.7h0.1c0.8-1.6,2.8-3.2,5.8-3.2c6.2,0,7.4,4.1,7.4,9.4v10.8h-6.1v-9.6c0-2.3,0-5.2-3.2-5.2
		c-3.2,0-3.7,2.5-3.7,5.1v9.8h-6.1V15z"/>
</g>
</svg>
